<?xml version="1.0" standalone="no"?>
<!DOCTYPE svg PUBLIC "-//W3C//DTD SVG 20010904//EN"
 "http://www.w3.org/TR/2001/REC-SVG-20010904/DTD/svg10.dtd">
<svg version="1.0" xmlns="http://www.w3.org/2000/svg"
 width="512.000000pt" height="512.000000pt" viewBox="0 0 512.000000 512.000000"
 preserveAspectRatio="xMidYMid meet">
<metadata>
Created by potrace 1.11, written by Peter Selinger 2001-2013
</metadata>
<g transform="translate(0.000000,512.000000) scale(0.100000,-0.100000)"
fill="#000000" stroke="none">
<path d="M2723 3990 c-4 -13 -9 -17 -17 -12 -16 14 -76 8 -116 -10 -19 -8
-159 -67 -312 -131 -152 -64 -306 -130 -342 -147 -37 -16 -72 -30 -79 -30 -7
0 -17 -4 -22 -8 -6 -5 -64 -30 -130 -56 -66 -26 -133 -54 -150 -61 -16 -7
-104 -41 -195 -74 -91 -34 -174 -66 -185 -71 -27 -13 -379 -164 -545 -235 -74
-31 -167 -73 -207 -92 -39 -19 -77 -32 -83 -28 -6 3 -9 1 -8 -5 2 -6 -18 -23
-45 -37 -26 -14 -47 -29 -47 -35 0 -5 -4 -7 -8 -4 -5 3 -21 -4 -37 -14 -27
-18 -35 -33 -38 -72 -1 -9 -5 -14 -9 -12 -4 3 -12 -5 -18 -17 -7 -12 -8 -19
-2 -15 5 3 12 -1 15 -9 4 -9 1 -12 -7 -9 -8 3 -17 1 -21 -5 -3 -6 1 -11 11
-11 13 0 14 -3 4 -15 -7 -8 -9 -15 -5 -15 4 0 2 -7 -5 -15 -10 -12 -10 -15 1
-15 11 0 11 -2 -1 -10 -10 -6 -11 -10 -2 -10 6 0 12 -5 12 -11 0 -5 -6 -7 -12
-3 -7 4 -10 3 -5 -1 4 -5 1 -16 -7 -24 -16 -17 -4 -53 11 -37 4 5 2 11 -5 13
-10 4 -10 8 -1 19 6 8 17 14 23 14 6 0 5 -4 -3 -9 -10 -7 -11 -13 -1 -31 8
-15 8 -20 1 -16 -6 4 -11 2 -11 -4 0 -6 -4 -8 -10 -5 -6 4 -7 -1 -3 -11 5 -14
3 -16 -10 -11 -15 5 -16 3 -7 -13 5 -10 15 -22 21 -25 7 -5 7 -11 -1 -20 -8
-10 -8 -15 1 -21 7 -4 9 -3 5 4 -3 6 -2 13 4 17 11 7 14 -28 3 -38 -3 -4 -12
-2 -20 4 -9 9 -13 8 -13 0 0 -6 4 -11 9 -11 5 0 8 -8 6 -17 -1 -10 4 -26 12
-35 13 -15 12 -18 -8 -28 -17 -9 -19 -14 -8 -20 16 -11 32 -2 23 12 -4 6 -2 8
4 5 5 -4 8 -17 5 -30 -4 -18 -3 -19 6 -7 6 8 11 23 11 33 0 9 6 17 13 17 9 0
8 3 -2 9 -7 5 -10 15 -7 22 4 8 1 7 -6 -2 -11 -14 -15 -14 -26 -3 -13 14 -5
19 21 15 11 -2 9 17 -3 24 -6 4 -7 12 -3 18 4 7 8 15 9 20 1 4 2 10 3 13 0 4
8 1 16 -6 10 -8 12 -17 6 -23 -6 -6 -1 -18 12 -34 12 -13 23 -29 23 -34 1 -5
2 -14 3 -20 0 -5 5 -8 9 -5 5 3 9 -1 9 -9 0 -18 -13 -20 -20 -2 -4 10 -6 10
-6 0 -1 -7 -6 -13 -12 -13 -5 0 -8 4 -4 9 3 5 1 12 -5 16 -6 4 -10 -5 -10 -20
0 -15 4 -24 10 -20 5 3 7 0 5 -7 -4 -9 2 -14 16 -15 15 -1 18 1 10 10 -17 21
46 14 66 -7 10 -10 13 -16 7 -13 -7 4 -18 -1 -25 -10 -12 -15 -12 -16 4 -10
10 4 16 3 12 -2 -3 -5 5 -17 17 -25 27 -19 39 -11 12 8 -16 12 -17 17 -6 28
11 11 12 10 6 -6 -6 -15 -4 -18 7 -14 10 4 15 -1 16 -13 2 -28 -16 -33 -39
-13 -11 10 -32 19 -48 20 -24 1 -28 -2 -25 -21 1 -16 -2 -22 -11 -18 -7 3 -13
8 -12 11 2 17 -3 32 -9 31 -19 -3 -25 2 -15 14 8 10 6 13 -7 13 -22 0 -17 -20
11 -50 10 -11 18 -23 18 -28 0 -4 3 -7 8 -7 26 4 30 -2 16 -28 -16 -31 -19
-56 -4 -33 5 8 10 11 10 6 0 -5 6 -3 14 3 10 8 16 9 21 1 3 -5 0 -10 -7 -10
-9 -1 -7 -5 4 -14 10 -7 14 -17 10 -21 -4 -5 -1 -5 6 -1 7 4 9 12 6 18 -4 6
-1 9 7 6 8 -3 14 -9 14 -14 0 -5 8 -20 18 -34 19 -27 23 -20 6 11 -8 17 -6 27
13 55 13 18 28 34 33 34 6 0 3 5 -5 11 -11 8 -9 9 10 3 24 -6 24 -6 7 13 -9
11 -17 23 -17 28 0 4 9 -3 20 -15 l21 -24 -31 -24 c-48 -37 -53 -54 -30 -104
11 -24 18 -34 15 -24 -5 16 -3 17 10 6 12 -10 18 -10 30 0 9 8 15 8 15 2 0 -6
-10 -14 -21 -17 -17 -6 -19 -9 -8 -17 11 -7 11 -11 2 -15 -18 -7 -16 -20 2
-20 8 0 12 4 9 9 -3 4 2 8 12 8 14 0 15 2 3 18 -7 9 -1 6 14 -7 15 -14 27 -20
27 -14 0 6 -6 16 -14 23 -8 6 -13 17 -10 24 3 7 -9 25 -27 40 -17 15 -29 29
-26 32 3 3 25 -14 49 -39 23 -24 50 -47 58 -50 12 -4 12 -6 -2 -6 -9 -1 -20 4
-23 9 -3 6 -11 10 -17 10 -6 0 -4 -8 6 -19 20 -21 13 -45 -16 -58 -20 -8 -20
-10 -4 -16 10 -4 15 -3 11 3 -3 5 12 9 37 8 24 0 50 1 58 4 8 3 12 3 7 1 -4
-3 -4 -10 0 -16 4 -6 0 -8 -10 -4 -9 3 -19 2 -22 -3 -4 -6 2 -10 12 -11 16 0
16 -1 -2 -8 -30 -12 -50 -2 -28 14 16 12 15 13 -8 12 -18 -2 -25 -6 -21 -16 4
-10 1 -12 -9 -6 -8 5 -11 5 -6 -1 8 -9 12 -10 40 -13 8 -1 8 -4 -3 -12 -12 -8
-11 -9 5 -7 13 2 19 -2 17 -11 -3 -12 0 -12 12 -1 19 15 21 24 4 14 -7 -5 -8
-3 -4 5 6 9 13 8 27 -5 16 -14 18 -34 3 -34 -3 0 -3 4 1 9 3 5 0 13 -7 17 -7
4 -10 4 -6 -1 4 -4 3 -17 -3 -28 -7 -12 -7 -17 -1 -13 6 3 21 2 34 -3 35 -13
53 0 39 28 -8 14 -8 21 -1 21 5 0 10 -7 10 -15 0 -8 5 -15 11 -15 5 0 7 5 3
12 -4 7 -3 8 4 4 21 -13 13 3 -19 35 -22 22 -28 34 -20 42 20 20 11 31 -9 12
-11 -10 -20 -15 -20 -12 0 3 12 17 27 31 15 14 24 28 21 32 -4 3 -17 -3 -29
-15 -13 -12 -27 -21 -32 -21 -5 0 6 12 23 26 17 15 28 29 25 32 -3 3 -16 -5
-30 -18 -14 -13 -25 -18 -25 -12 0 7 5 12 11 12 5 0 7 5 3 12 -4 6 -3 8 4 4 6
-3 13 -2 17 4 10 17 25 11 37 -15 6 -13 14 -22 19 -20 4 3 11 0 15 -6 4 -8 3
-9 -4 -5 -7 4 -12 2 -12 -3 0 -6 5 -11 11 -11 5 0 8 -4 5 -9 -4 -5 0 -12 6
-14 10 -4 10 -6 1 -6 -7 -1 -19 11 -26 25 -8 15 -17 22 -20 17 -8 -13 32 -65
44 -58 5 4 9 1 9 -4 0 -17 -14 -13 -38 9 -11 11 -24 16 -27 11 -3 -5 5 -17 17
-25 12 -9 18 -16 13 -16 -5 0 -1 -6 10 -13 10 -8 15 -19 11 -25 -3 -6 6 -25
21 -42 26 -31 26 -33 8 -46 -10 -7 -22 -11 -26 -8 -5 3 -9 0 -9 -6 0 -6 -5 -8
-12 -4 -7 4 -8 3 -4 -5 4 -6 12 -9 17 -6 5 4 9 -1 9 -9 0 -9 5 -16 11 -16 5 0
8 -4 4 -9 -3 -6 4 -8 15 -6 11 2 23 -3 28 -11 4 -8 21 -17 38 -20 24 -4 27 -3
16 8 -7 7 -20 13 -30 13 -11 0 -16 7 -14 20 2 17 1 18 -8 5 -9 -13 -10 -12 -8
5 2 12 -4 21 -15 23 -9 2 -17 -2 -17 -8 0 -6 4 -9 8 -6 5 3 9 -2 9 -10 0 -13
-3 -13 -16 1 -15 15 -14 17 3 30 17 13 21 12 32 -3 16 -21 18 -9 3 21 -10 21
-9 21 5 3 8 -10 14 -32 12 -48 -2 -18 1 -27 8 -25 6 2 10 15 8 27 -2 23 -2 23
22 -3 25 -27 43 -36 30 -15 -4 7 -3 8 4 4 7 -4 12 -2 12 3 0 6 -7 11 -15 11
-8 0 -15 5 -15 10 0 7 7 7 21 0 11 -7 23 -9 26 -6 8 7 -19 31 -36 31 -21 0
-25 21 -5 29 15 6 15 4 3 -10 -12 -15 -12 -17 1 -12 8 3 23 -2 33 -10 16 -14
19 -14 34 0 15 15 13 19 -13 42 -40 35 -54 32 -19 -4 16 -17 25 -30 21 -30 -5
0 -18 11 -30 25 l-22 26 -28 -22 c-24 -19 -26 -23 -12 -31 9 -5 16 -13 16 -19
0 -5 -10 -1 -21 10 l-21 20 28 25 c16 14 33 26 37 26 5 0 5 5 2 10 -13 20 17
5 51 -27 39 -36 38 -41 -13 -86 -25 -22 -31 -32 -21 -38 7 -4 10 -10 7 -14 -3
-3 -18 6 -32 19 -15 14 -29 21 -32 16 -3 -4 15 -24 40 -44 40 -33 45 -35 54
-19 6 10 11 13 11 6 0 -6 -5 -15 -12 -19 -17 -11 -68 -12 -62 -2 3 5 10 5 16
2 6 -4 9 -1 6 7 -3 8 -13 13 -23 11 -10 -2 -14 1 -10 7 4 7 0 8 -11 4 -14 -5
-15 -7 -1 -15 9 -5 14 -15 11 -22 -6 -16 22 -30 31 -16 9 15 25 12 25 -5 0 -8
-5 -15 -10 -15 -7 0 -6 -5 2 -13 10 -12 15 -11 30 3 11 10 16 24 12 33 -3 10
-2 17 4 17 5 0 8 18 6 39 -2 25 2 44 12 51 9 8 14 9 14 2 0 -6 -6 -12 -12 -15
-7 -2 -10 -8 -6 -12 11 -12 36 13 33 33 -1 9 0 12 2 5 2 -7 10 -10 17 -7 19 7
15 -27 -6 -48 -23 -23 -24 -11 -1 14 21 24 4 23 -24 -1 -23 -19 -32 -38 -13
-26 6 3 10 1 10 -4 0 -6 -5 -11 -12 -11 -6 0 -8 -3 -5 -7 4 -3 2 -12 -4 -20
-24 -28 4 -11 37 22 18 19 42 35 51 34 15 0 14 -2 -4 -9 -12 -5 -26 -17 -32
-27 -6 -10 -11 -14 -11 -8 0 5 -7 -1 -16 -13 -12 -18 -13 -26 -4 -37 7 -8 19
-15 28 -15 8 0 12 3 9 7 -4 3 0 11 9 18 13 9 22 5 51 -24 31 -31 33 -36 19
-47 -9 -6 -16 -17 -16 -25 0 -11 2 -11 10 1 6 9 10 10 10 3 0 -20 -20 -25 -27
-7 -4 10 0 22 10 29 15 11 13 15 -15 40 -27 24 -32 26 -40 11 -5 -9 -16 -16
-24 -16 -8 0 -12 -5 -9 -10 4 -6 11 -7 17 -4 6 4 8 2 5 -3 -9 -15 16 -23 34
-12 13 8 6 13 -14 10 -4 0 -7 3 -7 9 0 13 11 13 30 0 13 -9 11 -13 -9 -29 -23
-18 -57 -18 -46 -1 3 4 -2 13 -10 20 -8 7 -15 9 -15 4 0 -5 -5 -1 -11 9 -6 9
-15 14 -21 11 -7 -5 -8 -2 -3 6 5 9 4 11 -4 6 -14 -9 63 -86 85 -86 8 0 11 -6
7 -17 -4 -11 -3 -14 6 -9 7 5 10 14 7 22 -3 7 0 16 6 20 7 4 8 3 4 -4 -4 -7
-3 -12 2 -12 5 0 21 -12 36 -26 14 -15 26 -23 27 -18 0 5 4 -1 9 -13 5 -13 18
-23 29 -23 26 0 36 -17 21 -35 -10 -12 -10 -15 0 -15 8 0 10 -3 7 -7 -8 -7 21
-43 35 -43 4 0 8 5 8 11 0 5 -4 8 -9 4 -11 -6 -24 12 -28 39 -3 17 -2 18 22 2
14 -9 25 -14 25 -11 0 3 6 0 14 -7 16 -15 10 -32 -7 -22 -7 4 -7 1 1 -7 11
-12 15 -11 28 5 8 11 14 14 14 7 0 -7 5 -9 10 -6 6 4 8 10 5 15 -3 4 2 21 10
36 9 19 15 23 15 12 0 -9 -4 -20 -10 -23 -5 -3 -10 -11 -10 -18 0 -8 3 -8 12
1 7 7 15 12 19 12 4 0 -9 -17 -29 -37 -21 -21 -40 -36 -44 -35 -5 1 -8 -2 -8
-8 0 -5 5 -10 10 -10 17 0 25 5 22 12 -1 5 5 8 15 8 9 0 13 3 10 6 -7 7 30 44
45 44 4 0 8 -5 8 -11 0 -5 -4 -8 -9 -4 -11 6 -53 -49 -44 -58 3 -4 -2 -9 -11
-13 -9 -3 -16 -10 -16 -15 0 -18 40 16 51 43 6 16 15 28 20 28 14 0 11 -18 -3
-23 -7 -2 -9 -8 -5 -13 4 -4 17 2 30 14 12 12 16 22 9 22 -6 0 -12 5 -12 11 0
5 4 8 9 4 5 -3 12 3 14 12 3 10 4 5 4 -12 -1 -28 -24 -59 -49 -67 -6 -2 -9
-10 -7 -16 3 -9 19 0 46 23 44 38 53 42 53 23 0 -6 -3 -9 -6 -5 -3 3 -17 -5
-31 -19 -13 -13 -28 -24 -34 -24 -6 0 -8 -4 -4 -9 3 -6 -3 -14 -12 -20 -10 -6
-13 -11 -6 -11 16 0 54 -41 47 -51 -8 -14 15 -20 36 -9 14 7 20 8 20 0 0 -6
-7 -13 -15 -16 -11 -5 -12 -9 -2 -19 9 -9 14 -10 19 -1 5 7 8 6 8 -4 0 -13 1
-13 11 0 9 12 10 11 6 -8 -3 -12 -1 -20 3 -17 5 3 14 -3 20 -12 11 -17 11 -17
6 0 -3 9 -1 17 4 17 6 0 10 -4 10 -10 0 -5 5 -10 11 -10 5 0 7 5 4 10 -3 5 1
10 10 10 10 0 13 -5 9 -12 -5 -7 -3 -8 6 -3 10 6 12 3 8 -11 -7 -29 14 -45 37
-28 10 7 22 11 26 8 5 -3 9 0 9 5 0 14 -27 14 -35 1 -9 -14 -22 -12 -22 3 0 6
-4 21 -9 31 -5 14 -4 17 4 12 7 -4 12 -2 12 4 0 6 -12 8 -29 5 -23 -4 -29 -1
-27 11 1 8 9 20 17 25 11 8 10 13 -10 29 -13 11 -19 20 -15 21 5 0 0 4 -11 9
-14 6 -15 9 -5 9 15 1 36 -18 54 -47 4 -7 2 -19 -4 -27 -10 -12 -9 -15 9 -15
12 0 20 4 16 9 -3 5 -1 12 5 16 5 3 10 11 10 17 0 6 -3 9 -6 5 -3 -3 -17 7
-30 22 -36 43 -29 47 11 7 34 -35 44 -56 26 -56 -17 0 -2 -44 20 -63 29 -24
36 -14 9 13 -12 12 -19 27 -17 33 6 19 32 14 33 -6 1 -12 1 -13 -3 -2 -2 8 -9
15 -14 15 -15 0 -10 -18 11 -38 12 -11 18 -26 14 -35 -4 -12 -1 -14 14 -10 26
6 36 -11 21 -36 -12 -17 -15 -18 -36 -4 -14 10 -23 11 -23 4 0 -6 7 -11 16
-11 8 0 12 -5 9 -10 -4 -6 -3 -10 2 -9 20 3 27 -2 13 -12 -13 -8 -13 -9 2 -7
9 2 24 -6 35 -18 17 -19 19 -19 36 -2 17 18 15 20 -20 21 -28 2 -38 27 -18 46
10 9 15 10 11 4 -4 -7 -2 -13 4 -13 6 0 8 -5 4 -12 -5 -8 -2 -9 10 -5 10 4 15
3 11 -3 -7 -11 8 -14 18 -3 4 3 -7 19 -25 35 -17 15 -26 28 -19 28 6 0 14 -7
17 -15 4 -8 10 -12 15 -9 5 3 9 0 9 -6 0 -5 13 -18 28 -28 18 -10 27 -23 24
-32 -5 -13 -3 -13 12 -1 14 12 20 11 44 -10 15 -13 28 -27 30 -31 2 -5 10 -8
18 -8 9 0 13 4 10 8 -3 5 4 16 15 25 10 9 19 12 19 7 0 -6 -6 -13 -13 -16 -7
-2 -13 -15 -14 -27 -2 -21 -1 -21 20 4 22 26 75 61 63 41 -3 -6 6 -20 21 -33
16 -12 20 -19 11 -16 -11 4 -21 0 -27 -11 -6 -9 -11 -12 -11 -6 0 5 5 15 11
21 8 8 8 13 0 17 -6 4 -11 2 -11 -3 0 -6 -5 -11 -11 -11 -8 0 -8 5 1 15 7 8 9
15 4 15 -12 0 -42 -20 -31 -20 5 0 -5 -12 -22 -26 -20 -16 -38 -24 -49 -20
-15 5 -15 5 1 -8 10 -8 18 -18 17 -22 0 -4 6 -9 15 -10 8 -1 13 2 9 7 -3 5 0
9 7 9 7 0 9 3 6 6 -4 4 -15 1 -24 -7 -16 -13 -17 -12 -4 4 9 12 21 15 35 11
18 -6 19 -5 8 8 -10 13 -10 17 4 22 9 4 19 4 22 1 3 -3 0 -5 -6 -5 -7 0 -12
-5 -12 -11 0 -5 5 -7 10 -4 6 3 10 1 10 -4 0 -6 -5 -11 -11 -11 -6 0 -3 -7 5
-16 9 -8 16 -20 16 -26 0 -6 -9 0 -19 13 -11 13 -23 21 -27 16 -4 -4 1 -14 12
-22 18 -13 17 -14 -11 -9 -16 3 -27 2 -24 -1 4 -3 19 -8 35 -11 15 -3 31 -7
36 -10 4 -3 8 2 8 11 0 12 5 15 16 11 10 -4 14 -2 11 6 -2 7 -10 12 -16 10 -7
-1 -10 2 -6 8 3 5 1 10 -4 10 -6 0 -11 5 -11 11 0 5 4 8 9 4 5 -3 11 0 14 7 2
7 3 5 2 -4 -4 -24 22 -45 37 -30 7 7 16 12 22 12 5 0 -4 -11 -19 -24 -16 -14
-32 -23 -36 -20 -4 2 -6 -4 -4 -13 2 -10 4 -25 4 -33 1 -13 2 -13 11 0 5 9 5
17 -1 21 -5 3 2 11 16 17 14 6 25 16 25 22 0 6 5 8 11 4 8 -5 7 -9 -1 -14 -22
-14 -21 -58 2 -74 12 -9 25 -13 29 -11 4 3 10 -3 13 -12 6 -14 9 -15 15 -4 5
7 14 10 20 7 6 -4 9 -12 6 -17 -4 -5 -1 -9 4 -9 6 0 11 5 11 11 0 5 6 7 13 3
8 -5 7 -2 -2 9 -16 21 -6 36 12 18 14 -14 16 -34 4 -42 -5 -4 -4 -10 2 -13 6
-4 11 -2 11 5 0 9 3 9 14 0 11 -10 21 -9 46 4 18 9 38 14 46 11 28 -11 25 18
-5 46 -17 16 -31 26 -31 22 0 -4 -11 3 -25 16 -14 13 -25 19 -25 13 0 -12 51
-58 72 -66 8 -2 9 -8 4 -13 -5 -5 -11 -4 -13 4 -3 6 -11 12 -19 12 -8 0 -14 4
-14 10 0 5 -6 8 -12 6 -7 -1 -9 -1 -5 2 5 2 0 13 -9 23 -18 20 -14 31 11 35 8
1 12 -2 9 -8 -3 -5 0 -8 8 -6 16 4 84 -66 91 -94 3 -11 0 -21 -9 -25 -8 -3
-11 -10 -8 -15 4 -6 10 -5 14 3 12 18 40 20 40 3 0 -9 5 -12 10 -9 8 5 7 12
-2 23 -12 15 -11 15 4 4 14 -11 22 -11 47 2 38 20 51 20 25 1 -19 -15 -19 -15
1 -8 11 4 26 14 33 22 8 9 11 10 7 3 -5 -9 2 -11 26 -7 18 3 36 8 41 11 4 3 8
1 8 -5 0 -10 19 -9 38 3 7 4 18 3 25 -3 17 -13 40 2 44 30 3 19 1 20 -12 9
-13 -11 -13 -15 -3 -21 8 -5 5 -8 -10 -6 -27 2 -27 4 1 28 12 10 16 18 9 19
-7 0 -25 -12 -39 -28 -15 -15 -23 -21 -19 -15 12 21 15 53 5 53 -5 0 -9 5 -9
11 0 5 4 8 9 4 5 -3 12 3 15 12 3 11 4 9 3 -6 -1 -13 4 -26 11 -28 8 -3 10 1
5 13 -6 17 -5 16 14 -1 30 -28 88 -61 78 -45 -6 10 -4 12 9 7 10 -4 19 -1 22
8 4 8 12 15 20 15 25 0 15 15 -11 16 -14 1 -23 -2 -20 -7 3 -4 -3 -13 -14 -18
-15 -9 -28 -2 -74 38 -42 37 -62 48 -79 44 -18 -4 -20 -3 -8 6 8 6 23 8 33 5
11 -4 17 -1 15 8 -2 8 6 13 22 13 17 0 25 -6 25 -17 0 -10 8 -25 18 -35 10
-11 17 -13 17 -5 0 7 5 12 11 12 5 0 7 -6 3 -12 -11 -18 -12 -48 -2 -54 8 -5
12 11 9 30 -1 5 8 20 21 33 l23 25 -27 -7 c-18 -5 -28 -3 -28 4 0 6 8 8 18 4
9 -3 1 8 -18 26 -33 30 -33 31 -10 29 17 -2 24 2 22 10 -1 8 2 11 8 7 6 -4 9
-9 6 -12 -6 -7 62 -63 76 -63 6 0 25 15 44 34 18 18 36 31 39 28 3 -3 5 0 5 7
0 15 57 71 72 71 7 0 27 -17 44 -37 18 -21 36 -35 39 -31 4 4 -5 18 -20 32
-16 15 -23 26 -16 26 6 0 14 -7 17 -15 4 -8 10 -12 15 -9 5 3 9 0 9 -6 0 -6 4
-9 10 -5 5 3 7 12 3 20 -3 9 1 15 11 15 14 0 20 -11 17 -32 0 -4 8 -6 19 -5
11 1 20 8 20 16 0 11 3 12 11 4 9 -9 16 -9 30 0 16 10 16 12 1 23 -14 10 -9
12 27 10 35 -2 45 1 49 16 3 14 8 16 24 7 11 -6 18 -7 15 -2 -8 12 17 33 73
60 38 18 41 22 18 20 -15 -1 -24 -5 -22 -9 10 -16 -6 -7 -29 16 -18 18 -33 23
-63 21 -21 -2 -31 -1 -21 2 9 2 15 9 12 14 -4 5 -1 9 4 9 6 0 11 -4 11 -10 0
-5 5 -10 10 -10 7 0 7 6 0 20 -7 13 -16 17 -28 13 -10 -4 -6 3 11 19 26 25 37
45 17 33 -6 -3 -10 -2 -10 3 0 6 6 12 14 15 17 7 15 -41 -3 -52 -13 -9 30 -61
50 -61 7 0 3 9 -10 21 -12 12 -20 28 -17 36 3 8 6 17 6 21 0 3 6 -2 13 -12 12
-17 15 -17 29 -2 15 15 17 14 23 -4 4 -11 11 -17 17 -14 6 4 6 10 -1 17 -6 6
-11 18 -10 26 0 11 3 10 8 -4 4 -11 17 -20 27 -20 13 0 18 -6 16 -19 -3 -18
-2 -18 13 -6 16 13 15 15 -5 32 -12 10 -17 18 -12 18 6 0 14 -4 17 -10 3 -5
11 -10 17 -10 6 0 3 9 -7 20 -10 11 -20 18 -24 17 -3 -2 -21 11 -39 28 -27 26
-30 31 -14 31 12 0 18 -5 15 -13 -7 -19 5 -16 29 7 24 22 38 26 38 9 0 -5 -4
-8 -9 -5 -4 3 -16 -3 -25 -13 -16 -17 -15 -19 11 -36 15 -10 33 -26 40 -34 8
-11 12 -12 13 -3 0 7 -9 20 -19 29 -11 9 -17 21 -14 26 4 7 -1 8 -13 3 -14 -5
-16 -4 -7 5 13 13 36 2 27 -13 -5 -8 -1 -9 10 -5 9 4 15 3 12 -1 -3 -5 2 -20
12 -33 19 -28 25 -52 10 -43 -7 4 -8 2 -4 -4 4 -7 -1 -10 -14 -7 -22 4 -28
-10 -7 -19 6 -3 -3 -3 -20 0 -22 3 -33 0 -33 -8 0 -7 -5 -5 -11 5 -8 13 -7 22
1 33 7 8 8 14 2 14 -14 0 -33 -25 -25 -33 3 -4 1 -7 -5 -7 -17 0 -10 -24 8
-31 8 -4 20 -2 27 3 6 5 23 10 37 11 14 1 39 14 55 30 20 18 31 23 34 15 4
-10 6 -10 6 0 1 7 6 10 11 7 6 -4 10 -3 9 2 -3 20 2 27 11 13 8 -13 11 -13 22
-1 8 9 9 11 1 7 -6 -3 -14 -2 -18 4 -4 6 7 13 25 16 17 4 33 11 36 15 3 5 9 7
14 4 5 -3 12 0 16 6 4 8 3 9 -4 5 -7 -4 -12 -2 -12 3 0 9 14 15 23 9 7 -5 47
25 47 35 0 7 -3 8 -8 2 -9 -13 -29 -18 -74 -19 -41 -1 -43 -3 -28 -26 8 -13
11 -12 25 5 16 19 16 19 5 -3 -7 -14 -17 -21 -25 -18 -8 3 -17 1 -20 -5 -10
-15 -25 0 -18 19 3 9 2 14 -2 9 -5 -4 -9 -17 -10 -30 -2 -12 -7 -21 -13 -20
-5 1 -16 -4 -22 -12 -11 -13 -15 -11 -32 10 -11 14 -17 29 -13 34 3 6 -4 15
-15 21 -11 6 -20 18 -19 28 0 13 2 14 6 2 8 -20 46 -49 57 -43 4 3 2 9 -5 14
-20 12 -20 49 -1 41 11 -4 12 -7 4 -10 -7 -2 -12 -8 -12 -13 0 -6 4 -8 9 -4 5
3 12 -4 16 -15 4 -11 11 -18 16 -15 5 4 4 14 -3 25 -9 14 -9 22 1 34 7 8 10
19 7 25 -4 5 1 17 10 26 9 9 13 19 9 23 -4 4 -15 -3 -25 -16 -17 -21 -19 -21
-17 -3 0 11 5 17 9 15 5 -3 11 2 14 11 5 11 10 13 19 5 7 -6 21 -7 31 -4 11 4
5 -5 -13 -21 -18 -15 -30 -32 -27 -37 3 -5 0 -15 -6 -23 -7 -8 -10 -21 -7 -29
7 -17 49 -18 44 -1 -2 5 -13 8 -23 7 -15 -3 -16 -1 -7 9 10 10 16 9 29 -2 16
-12 17 -12 11 4 -3 9 -2 17 3 17 6 0 10 -7 10 -15 0 -8 5 -15 11 -15 5 0 7 5
4 10 -4 6 -3 10 2 9 22 -4 44 2 38 10 -6 11 35 54 44 45 3 -3 -1 -9 -8 -13 -7
-5 -9 -11 -5 -13 5 -3 4 -3 -3 -2 -7 2 -15 -1 -18 -6 -4 -6 0 -11 7 -12 7 0
18 -2 23 -3 6 -2 16 -3 23 -4 8 -1 10 -6 6 -13 -6 -10 -5 -10 8 -1 8 7 17 10
20 7 4 -3 5 9 4 26 -1 17 2 34 7 37 5 3 -2 16 -14 29 -12 13 -18 24 -13 24 5
1 -2 10 -15 21 -21 17 -22 22 -10 30 19 12 29 11 29 -2 0 -5 -4 -7 -10 -4 -15
9 -12 -4 5 -22 8 -8 13 -18 11 -21 -5 -11 42 -53 48 -43 3 5 -1 14 -9 21 -7 6
-11 18 -8 26 3 9 0 14 -8 12 -7 -2 -14 6 -16 17 -3 18 -2 18 5 2 4 -10 11 -18
15 -18 26 3 29 0 18 -13 -8 -10 -9 -16 -1 -21 5 -3 10 -1 10 6 0 7 7 4 16 -7
15 -18 15 -18 9 4 -4 15 -1 24 9 28 9 3 16 12 16 19 0 7 7 18 15 25 8 6 14 15
13 18 -4 31 15 44 25 18 4 -11 1 -13 -10 -9 -10 4 -14 2 -10 -4 4 -6 1 -17 -6
-25 -25 -25 -27 -47 -6 -62 13 -9 16 -16 10 -21 -6 -3 -11 -2 -11 4 0 6 -7 8
-15 5 -8 -3 -14 -9 -13 -12 2 -22 -4 -33 -16 -29 -14 6 -36 -10 -36 -26 0 -5
7 -4 15 3 8 6 19 9 25 5 5 -3 10 -1 10 5 0 6 5 8 12 4 8 -5 9 -2 5 9 -3 9 -2
19 3 22 6 4 10 1 10 -4 0 -6 9 -2 21 10 17 17 18 23 9 33 -10 8 -11 8 -5 -4 6
-11 3 -11 -10 2 -15 14 -16 20 -5 32 7 10 22 14 37 12 16 -3 23 -1 20 7 -2 7
-13 11 -23 9 -16 -2 -16 -1 -4 7 9 7 18 7 24 1 6 -6 15 -10 20 -10 6 0 -2 11
-17 25 -33 32 -34 39 -2 67 14 12 23 28 20 36 -2 7 0 10 5 7 6 -3 10 -1 10 6
0 7 9 2 20 -11 11 -13 20 -25 20 -28 0 -3 -9 3 -20 13 -20 18 -29 8 -9 -12 7
-7 6 -15 -5 -26 -18 -17 -21 -32 -6 -22 5 3 10 1 10 -4 0 -13 -10 -14 -30 -1
-13 8 -12 12 8 25 12 9 20 21 17 26 -4 5 -18 -2 -33 -16 l-27 -25 29 -26 c23
-22 30 -24 37 -13 5 8 9 18 9 23 0 5 8 2 17 -5 15 -12 16 -12 10 4 -4 10 -3
16 2 12 5 -3 12 4 16 15 6 18 17 24 38 21 4 0 7 3 7 8 0 5 -3 11 -7 14 -5 2
-2 2 4 1 7 -2 17 5 22 14 6 9 10 13 10 7 0 -5 -6 -19 -14 -29 -19 -25 -19 -36
0 -36 8 0 14 3 13 8 -4 13 13 52 23 52 5 0 9 -4 9 -10 0 -5 -5 -10 -11 -10 -6
0 -9 -6 -6 -13 6 -15 -12 -41 -31 -45 -6 -1 -12 3 -12 9 0 5 -5 7 -10 4 -7 -4
-6 -13 1 -27 9 -16 8 -19 -2 -13 -8 6 -10 4 -4 -5 6 -9 4 -11 -5 -5 -9 6 -11
4 -5 -5 6 -9 4 -11 -6 -5 -12 7 -12 6 -1 -6 11 -12 15 -11 25 6 6 11 12 23 13
28 1 4 2 10 3 15 1 4 5 1 10 -7 8 -12 15 -11 44 9 20 14 33 30 30 37 -3 9 0
11 10 7 8 -3 18 -1 21 5 4 6 14 7 24 4 16 -6 16 -6 0 11 -13 13 -22 15 -36 7
-11 -6 -22 -7 -26 -4 -6 7 -10 -12 -6 -36 1 -13 -1 -13 -15 -1 -16 13 -15 16
10 38 24 20 26 25 13 38 -8 8 -23 16 -34 18 -10 3 -28 7 -39 11 -19 6 -19 6
-2 -8 18 -15 24 -33 8 -22 -5 3 -11 0 -14 -7 -2 -7 -3 -5 -1 5 1 9 -4 21 -12
25 -12 7 -9 11 13 22 38 18 53 20 53 8 0 -6 -7 -8 -15 -5 -8 4 -17 2 -20 -3
-4 -6 -3 -10 2 -11 29 -3 47 -10 64 -25 11 -10 19 -12 19 -6 0 7 -9 17 -20 24
-11 7 -20 16 -20 21 0 4 4 6 9 2 5 -3 12 3 15 12 4 15 4 14 3 -2 -2 -24 10
-45 26 -45 8 0 8 3 -1 12 -7 7 -12 17 -12 22 0 6 5 3 11 -6 9 -16 13 -17 39
-3 15 8 38 27 51 42 12 16 19 20 16 11 -5 -13 -1 -18 13 -18 10 0 22 -5 25
-10 3 -5 11 -10 16 -10 6 0 7 6 2 13 -4 6 -6 20 -5 30 2 9 -2 17 -9 17 -7 0
-10 2 -7 5 8 8 39 -6 33 -15 -3 -4 3 -14 12 -21 14 -12 15 -11 9 9 -7 21 1 27
27 23 4 0 7 3 7 7 0 14 -63 56 -82 55 -10 -1 -18 2 -18 6 0 15 39 7 61 -12 11
-10 24 -15 27 -12 4 4 -3 15 -15 25 -13 10 -23 21 -23 25 0 4 7 2 15 -5 13
-11 20 -9 38 9 13 11 27 21 31 21 4 0 -4 -11 -18 -24 -32 -28 -33 -36 -5 -33
12 1 24 -5 26 -13 4 -13 3 -13 -5 -1 -9 12 -13 12 -26 2 -16 -13 -13 -31 5
-31 6 0 7 6 3 13 -5 8 -3 8 9 -2 14 -11 18 -11 23 3 3 9 11 16 17 16 5 0 2 -9
-8 -20 -10 -11 -14 -20 -9 -20 5 0 2 -5 -6 -10 -9 -6 -11 -10 -3 -10 7 0 10
-7 7 -17 -5 -17 -5 -17 6 0 6 9 17 14 23 10 7 -3 3 3 -7 15 -11 12 -15 22 -9
22 12 0 34 46 26 54 -10 10 -25 7 -18 -4 3 -5 2 -10 -3 -10 -5 0 -9 15 -9 33
0 17 2 25 4 17 2 -9 13 -21 24 -28 17 -11 25 -11 45 3 30 20 30 30 -1 51 -20
13 -23 20 -14 30 6 8 15 11 20 9 4 -3 12 3 18 12 6 10 11 13 11 6 0 -6 -7 -19
-16 -27 -14 -15 -14 -17 1 -32 9 -9 14 -23 11 -30 -7 -17 6 -18 23 -1 11 10
11 8 0 -10 -7 -12 -17 -19 -21 -17 -4 3 -8 0 -8 -5 0 -6 5 -11 11 -11 5 0 8
-4 5 -8 -3 -5 1 -9 9 -9 8 0 15 4 15 9 0 4 -5 8 -11 8 -8 0 -8 5 1 15 7 8 16
13 20 10 4 -3 11 2 14 11 9 24 7 31 -5 14 -9 -12 -10 -11 -4 5 11 33 11 37 -4
43 -8 2 -11 0 -8 -5 3 -5 1 -15 -4 -23 -8 -13 -10 -13 -19 0 -5 8 -7 22 -3 30
3 8 6 23 7 32 0 9 3 16 6 16 19 -2 30 3 25 12 -3 6 1 7 10 4 10 -4 15 -2 13 7
-2 9 5 14 20 13 15 -1 21 3 18 12 -3 8 0 11 10 7 7 -3 14 0 14 5 0 6 9 14 20
17 11 4 18 10 15 15 -3 4 5 6 17 2 14 -3 19 -1 14 6 -9 15 13 27 27 13 20 -20
31 -12 12 9 -17 18 -17 20 -2 14 9 -3 17 -9 17 -13 0 -4 9 -7 20 -8 16 -1 18
1 8 17 -6 10 -19 16 -27 13 -14 -4 -14 -4 -1 6 11 8 20 4 37 -17 24 -30 32
-18 8 14 -8 10 -14 24 -14 29 0 6 4 2 10 -7 5 -9 15 -16 22 -14 6 1 9 1 5 -1
-15 -8 -8 -25 7 -19 8 3 22 3 30 0 12 -5 13 -10 4 -20 -6 -8 -17 -14 -23 -14
-6 0 -4 4 4 10 8 5 11 12 7 16 -4 5 -17 -2 -29 -14 l-22 -22 24 0 c18 0 21 -3
12 -12 -9 -9 -16 -7 -32 7 -27 24 -33 16 -10 -13 16 -19 22 -21 38 -11 36 22
62 91 41 105 -5 3 -9 -1 -9 -8 0 -11 -2 -11 -9 0 -4 7 -17 14 -28 15 -11 0
-20 7 -20 14 0 6 4 10 9 7 4 -3 8 0 8 6 0 6 7 10 16 8 10 -2 19 3 21 10 3 8
-2 10 -14 6 -17 -5 -17 -5 0 6 9 6 17 16 17 23 0 7 -4 6 -10 -3 -15 -23 -12
-6 5 26 12 24 15 25 15 9 1 -19 1 -19 15 -1 8 10 19 15 26 10 8 -5 10 -3 5 5
-5 7 -14 10 -22 7 -18 -7 -17 2 1 34 18 31 19 92 2 109 -10 11 -9 12 2 6 23
-13 4 46 -24 75 -14 14 -29 40 -36 57 -7 23 -15 30 -27 26 -11 -5 -14 -2 -9
10 3 9 3 17 -2 17 -4 0 -21 11 -37 25 -16 14 -35 23 -42 20 -7 -3 -11 -1 -8 4
3 4 -3 16 -14 26 -17 15 -22 16 -37 4 -16 -13 -17 -12 -4 4 12 15 12 19 -5 32
-10 8 -22 15 -26 15 -8 0 -36 22 -63 48 -8 6 -18 12 -22 12 -5 0 -18 8 -29 18
-11 10 -33 27 -49 38 -34 22 -39 25 -80 57 -16 13 -61 45 -98 71 -38 25 -75
53 -84 61 -8 8 -19 13 -24 10 -5 -4 -9 -2 -9 3 0 5 -12 14 -26 20 -14 7 -23
16 -20 21 4 5 -2 8 -11 7 -10 -2 -24 5 -31 16 -7 10 -18 16 -23 13 -5 -4 -9 1
-9 9 0 9 -3 15 -7 15 -21 -3 -33 2 -33 15 0 15 -27 29 -40 21 -5 -3 -12 0 -16
6 -4 8 -3 9 4 5 7 -4 12 -2 12 3 0 6 -9 11 -21 11 -11 0 -17 4 -14 10 3 6 -1
7 -9 4 -11 -4 -16 0 -16 10 0 9 -5 16 -11 16 -5 0 -7 -4 -4 -10 3 -6 -1 -7 -9
-4 -9 3 -16 14 -16 23 0 14 -2 14 -11 1 -9 -12 -10 -10 -6 9 5 20 2 22 -18 19
-15 -3 -22 -1 -19 7 6 13 -22 28 -36 20 -5 -3 -12 0 -16 6 -4 8 -3 9 4 5 18
-11 14 10 -5 25 -11 10 -14 10 -9 2 4 -8 1 -13 -8 -13 -9 0 -16 5 -16 10 0 16
-18 12 -23 -5 -3 -11 -4 -10 -3 2 1 10 -7 26 -18 36 -13 12 -15 17 -5 17 8 0
1 9 -16 20 -19 12 -32 15 -36 9 -6 -10 -11 -3 -19 26 -6 21 -34 34 -49 22 -12
-10 -13 -8 -9 11 4 14 2 22 -5 21 -25 -3 -38 1 -32 11 4 6 -7 10 -27 10 -21 0
-28 3 -20 8 9 7 6 13 -13 28 -14 10 -27 17 -28 14 -2 -3 -11 3 -21 13 -11 11
-26 15 -37 12 -11 -4 -19 -2 -19 5 0 6 6 8 13 5 6 -4 1 3 -13 14 -14 12 -31
26 -37 31 -7 6 -13 7 -13 2 0 -5 -7 -9 -15 -9 -8 0 -11 5 -8 10 4 7 -1 8 -13
3 -15 -6 -16 -5 -7 5 9 9 2 18 -35 37 -26 14 -55 34 -64 45 -10 11 -18 15 -18
8 0 -8 -6 -7 -16 4 -9 9 -22 14 -29 11 -9 -3 -11 3 -8 17 4 16 2 18 -5 8 -11
-16 -32 -7 -32 14 0 15 -38 40 -47 32 -2 -3 5 -8 16 -12 12 -3 21 -11 21 -16
0 -6 -7 -6 -17 0 -10 5 -26 12 -35 15 -10 3 -15 11 -13 18 5 12 -51 45 -68 40
-4 -1 -10 4 -13 11 -3 9 -17 13 -39 10 -19 -2 -37 2 -41 8 -4 8 -3 9 4 5 7 -4
12 -3 12 2 0 11 -58 24 -71 16 -5 -3 -9 0 -9 7 0 10 -3 10 -12 1 -17 -17 -33
-15 -18 3 10 12 8 14 -9 10 -11 -2 -23 1 -27 7 -4 7 -9 6 -14 -3 -17 -27 -56
-17 -51 14 2 16 -11 5 -16 -13z m103 -31 c0 -12 -4 -15 -12 -9 -6 6 -14 7 -17
3 -4 -3 -7 1 -7 10 0 9 8 15 18 14 10 0 18 -9 18 -18z m88 -15 c3 -8 2 -12 -4
-9 -6 3 -10 10 -10 16 0 14 7 11 14 -7z m-24 -5 c0 -4 -9 -7 -19 -6 -11 0 -18
4 -16 7 6 9 35 8 35 -1z m166 -51 c12 -15 13 -18 3 -10 -9 7 -25 9 -35 5 -16
-6 -17 -5 -4 10 8 9 15 16 16 17 0 0 9 -10 20 -22z m393 -237 c8 -5 9 -11 3
-15 -5 -3 -15 1 -22 9 -14 16 -3 20 19 6z m256 -161 c3 -5 1 -10 -4 -10 -6 0
-11 5 -11 10 0 6 2 10 4 10 3 0 8 -4 11 -10z m69 -65 c-4 -8 -11 -12 -16 -9
-6 4 -5 10 3 15 19 12 19 11 13 -6z m340 -233 c3 -5 -1 -9 -9 -9 -8 0 -12 4
-9 9 3 4 7 8 9 8 2 0 6 -4 9 -8z m-3973 -589 c0 -5 2 -18 5 -30 5 -30 -10 -37
-31 -13 -16 18 -16 20 -1 26 9 3 13 10 10 15 -3 5 0 9 5 9 6 0 11 -3 12 -7z
m127 -339 c5 3 17 3 26 0 13 -5 13 -10 4 -27 -6 -12 -15 -25 -20 -28 -5 -3 -3
-9 6 -12 10 -4 16 -1 16 9 0 8 7 17 15 20 8 4 12 10 9 15 -3 5 0 9 6 9 7 0 9
-7 6 -16 -3 -9 -6 -18 -6 -20 0 -3 -4 -2 -10 1 -5 3 -10 -3 -10 -13 0 -15 -6
-20 -24 -18 -13 0 -24 3 -24 6 1 3 -2 13 -7 23 -7 17 -8 17 -22 0 -13 -17 -13
-16 -4 3 6 12 8 34 5 50 -5 27 -4 28 9 10 8 -10 19 -16 25 -12z m2 22 c0 -3
-4 -8 -10 -11 -5 -3 -10 -1 -10 4 0 6 5 11 10 11 6 0 10 -2 10 -4z m80 -16 c0
-5 -5 -10 -11 -10 -5 0 -7 5 -4 10 3 6 8 10 11 10 2 0 4 -4 4 -10z m64 -44
c-3 -9 -10 -16 -15 -16 -5 0 -9 -5 -9 -11 0 -5 5 -7 10 -4 6 3 10 1 10 -5 0
-7 -8 -9 -19 -5 -11 3 -24 -1 -32 -11 -12 -14 -10 -19 10 -35 13 -11 21 -22
17 -26 -6 -6 -46 34 -46 48 0 8 73 86 78 84 1 -1 0 -10 -4 -19z m19 -11 c-3
-9 -8 -14 -10 -11 -3 3 -2 9 2 15 9 16 15 13 8 -4z m21 -22 c-15 -15 -14 -18
8 -36 l23 -19 -28 17 c-16 9 -31 15 -33 12 -6 -5 59 -62 69 -59 4 1 7 -2 7 -8
0 -19 -18 -10 -53 25 -21 21 -34 42 -30 50 3 8 9 13 13 10 5 -3 11 4 15 15 4
11 11 18 16 15 5 -4 2 -13 -7 -22z m36 -18 c14 0 60 -44 51 -49 -5 -3 -11 1
-15 9 -3 9 -12 12 -23 9 -15 -5 -16 -4 -3 5 8 6 12 11 8 12 -5 1 -12 3 -18 4
-5 1 -14 3 -20 4 -5 0 -10 6 -10 12 0 6 5 7 13 2 6 -4 14 -8 17 -8z m41 -70
c5 4 9 1 9 -4 0 -6 -4 -11 -9 -11 -5 0 -8 -15 -6 -32 2 -18 1 -25 -1 -15 -3 9
-10 15 -15 12 -5 -4 -9 -1 -9 4 0 6 4 11 9 11 5 0 8 15 6 33 -2 17 -1 24 1 14
3 -9 10 -15 15 -12z m39 5 c0 -5 -4 -10 -10 -10 -5 0 -10 5 -10 10 0 6 5 10
10 10 6 0 10 -4 10 -10z m-80 -57 c0 -5 -5 -15 -10 -23 -7 -12 -9 -10 -7 8 1
19 17 33 17 15z m20 -23 c0 -5 -5 -10 -11 -10 -5 0 -7 5 -4 10 3 6 8 10 11 10
2 0 4 -4 4 -10z m174 -35 c-4 -8 -8 -15 -10 -15 -2 0 -4 7 -4 15 0 8 4 15 10
15 5 0 7 -7 4 -15z m41 -23 c-6 -7 -34 11 -29 19 3 5 11 3 19 -4 7 -6 12 -13
10 -15z m-142 -2 c9 -11 13 -20 7 -20 -5 0 -13 8 -19 17 -5 10 -13 15 -17 10
-4 -4 1 -16 10 -26 10 -11 15 -25 11 -30 -3 -6 -1 -11 4 -11 6 0 11 -4 11 -9
0 -5 -9 -7 -20 -4 -16 4 -18 8 -9 19 9 11 8 19 -6 34 -9 10 -14 24 -10 29 9
16 18 14 38 -9z m124 -15 c5 -14 8 -14 26 2 19 18 20 18 6 -4 -16 -26 -25 -29
-36 -9 -4 7 -15 16 -23 19 -12 4 -11 6 3 6 10 1 20 -6 24 -14z m-26 -13 c-7
-2 -18 1 -23 6 -8 8 -4 9 13 5 13 -4 18 -8 10 -11z m108 -19 c6 -4 -60 -63
-72 -63 -13 0 -57 48 -57 63 0 5 9 -1 20 -14 l20 -24 27 31 c22 24 31 28 43
20 8 -6 17 -11 19 -13z m-84 -3 c3 -5 2 -10 -4 -10 -5 0 -13 5 -16 10 -3 6 -2
10 4 10 5 0 13 -4 16 -10z m3873 -51 c-18 -12 -28 -11 -28 2 0 5 5 7 10 4 15
-9 12 4 -5 21 -8 9 -15 19 -15 24 0 5 12 -3 26 -17 20 -20 23 -28 12 -34z
m-39 12 c0 -10 -3 -8 -10 7 -5 14 -13 20 -20 16 -8 -4 -9 -3 -5 5 10 16 36 -5
35 -28z m-39 -21 c0 -5 -5 -10 -11 -10 -5 0 -7 5 -4 10 3 6 8 10 11 10 2 0 4
-4 4 -10z m-3625 -70 c-21 -22 -34 -40 -27 -40 7 0 12 -5 12 -11 0 -5 -4 -8
-9 -4 -5 3 -12 -3 -14 -12 -3 -10 -4 -4 -4 12 2 28 49 91 72 94 5 0 -9 -17
-30 -39z m3470 16 c-15 -11 -14 -13 4 -30 23 -21 27 -36 10 -36 -5 0 -8 4 -5
9 3 5 -6 17 -19 27 -24 18 -36 42 -15 29 6 -3 13 1 16 9 3 9 10 13 16 10 5 -3
2 -11 -7 -18z m45 3 c0 -5 3 -8 8 -6 4 3 14 -2 22 -11 13 -14 12 -15 -5 -8
-11 5 -31 9 -45 8 -16 0 -18 2 -7 5 9 2 15 9 12 14 -4 5 -1 9 4 9 6 0 11 -5
11 -11z m-93 -6 c-4 -3 0 -15 9 -25 14 -15 15 -20 4 -33 -15 -18 -76 -52 -67
-38 3 4 -6 16 -19 26 -21 16 -25 16 -30 3 -3 -9 -10 -13 -16 -10 -5 3 -1 12 9
19 10 7 22 11 27 8 4 -3 11 -1 15 4 8 11 62 53 69 53 3 0 2 -3 -1 -7z m-3292
-62 c3 -5 2 -12 -3 -15 -5 -3 -9 1 -9 9 0 17 3 19 12 6z m35 -47 c13 -13 17
-24 10 -34 -5 -8 -13 -11 -17 -6 -4 5 -2 11 5 13 21 8 -15 42 -37 36 -11 -3
-21 -1 -24 4 -11 17 44 6 63 -13z m-70 -6 c0 -6 -3 -9 -6 -5 -3 3 -15 -3 -27
-13 -29 -28 -33 -17 -5 12 23 24 38 27 38 6z m31 -18 c6 0 7 5 4 10 -3 6 -1
10 5 10 7 0 9 -8 5 -19 -3 -11 1 -24 11 -32 14 -11 19 -10 34 9 20 25 31 28
28 10 -2 -7 3 -12 10 -10 18 3 15 -8 -10 -29 l-23 -19 24 -20 c13 -11 27 -18
30 -15 3 4 -2 11 -12 16 -22 13 -22 21 1 36 17 10 19 8 18 -25 -1 -43 -11 -46
-51 -14 l-29 23 22 15 c12 8 20 20 17 25 -4 5 -13 3 -21 -6 -9 -8 -19 -15 -24
-15 -14 0 -60 49 -59 63 0 9 2 9 6 0 2 -7 9 -13 14 -13z m3099 -12 c0 -6 -6
-5 -15 2 -10 8 -15 9 -15 2 0 -6 8 -16 18 -21 13 -8 14 -10 2 -11 -21 0 -44
37 -27 43 16 6 37 -3 37 -15z m-3259 -11 c-10 -9 -11 -8 -5 6 3 10 9 15 12 12
3 -3 0 -11 -7 -18z m3194 13 c-3 -5 -3 -10 2 -10 9 -1 47 -50 39 -50 -11 0
-55 54 -50 62 3 4 7 8 10 8 3 0 2 -4 -1 -10z m144 -9 c9 -6 10 -11 2 -15 -6
-4 -11 -2 -11 4 0 6 -4 8 -10 5 -5 -3 -10 -1 -10 4 0 13 10 14 29 2z m-265
-85 c-32 -31 -62 -56 -66 -56 -5 0 -6 -5 -2 -12 8 -13 -12 -3 -39 20 -9 8 -20
12 -24 8 -5 -4 0 -12 10 -17 9 -6 17 -14 17 -20 0 -5 -10 0 -22 11 l-23 21 25
19 c14 11 29 15 34 10 10 -10 38 -1 31 11 -3 4 4 13 15 19 13 7 20 7 20 0 0
-5 -7 -10 -16 -10 -8 0 -13 -4 -9 -9 3 -6 -4 -15 -16 -22 -16 -8 -23 -8 -29 1
-5 8 -10 8 -14 2 -3 -5 1 -15 9 -22 13 -11 22 -8 53 17 20 17 36 38 36 47 -1
9 2 13 7 10 5 -3 19 4 31 15 12 12 23 19 25 17 3 -2 -22 -29 -53 -60z m-2747
12 c5 -30 10 -33 30 -17 16 13 17 12 4 -3 -11 -15 -11 -21 0 -35 12 -14 12
-16 0 -8 -11 6 -13 4 -8 -9 4 -11 3 -15 -4 -11 -6 4 -8 13 -5 20 3 8 -2 19
-10 25 -8 7 -14 19 -14 27 0 8 -4 11 -10 8 -5 -3 -10 -1 -10 4 0 6 5 11 11 11
8 0 7 6 -2 18 -11 14 -11 15 1 5 7 -7 15 -23 17 -35z m2887 8 c-5 -13 -34 -31
-34 -21 0 5 30 35 35 35 3 0 2 -6 -1 -14z m-2979 -30 c15 -13 25 -30 22 -37
-4 -9 -6 -7 -6 5 -1 11 -4 16 -8 13 -3 -4 -13 2 -20 13 -8 11 -19 18 -24 15
-5 -4 -9 -1 -9 4 0 17 15 13 45 -13z m3100 15 c3 -6 -4 -15 -15 -21 -20 -11
-21 -10 -10 9 12 23 16 25 25 12z m-3009 -58 c1 -7 -2 -13 -8 -13 -6 0 -7 7
-4 15 3 9 -1 18 -9 21 -8 4 -12 11 -9 16 7 11 26 -15 30 -39z m59 38 c-6 -11
28 -33 39 -26 3 3 4 2 1 -2 -8 -11 -47 -14 -41 -4 4 5 1 11 -6 13 -10 4 -4 28
8 28 3 0 3 -4 -1 -9z m-165 -21 c11 -11 17 -20 13 -20 -11 1 -43 26 -43 34 0
11 9 7 30 -14z m80 -12 c0 -5 -4 -6 -10 -3 -20 12 -10 -6 16 -30 15 -14 23
-25 18 -25 -13 0 -41 20 -29 20 6 0 3 5 -5 10 -19 12 -22 50 -4 43 8 -3 14 -9
14 -15z m2589 -18 l-24 -20 23 -19 c23 -20 29 -41 11 -41 -5 0 -8 4 -4 9 3 6
-1 13 -8 18 -8 4 -20 19 -27 32 -6 13 -8 21 -2 17 5 -3 15 1 22 9 7 8 17 15
22 15 6 0 0 -9 -13 -20z m148 -5 c-7 -13 -14 -20 -15 -14 -2 5 2 16 8 24 18
21 20 18 7 -10z m-2766 -12 c13 -16 12 -17 -3 -4 -10 7 -25 11 -33 7 -9 -3
-13 -2 -10 4 10 15 31 12 46 -7z m114 8 c-3 -5 3 -12 12 -14 10 -3 6 -4 -8 -4
-18 1 -25 6 -22 14 3 7 9 13 15 13 5 0 7 -4 3 -9z m40 -1 c3 -6 -1 -7 -9 -4
-18 7 -21 14 -7 14 6 0 13 -4 16 -10z m-75 -20 c6 -11 9 -20 8 -20 -2 0 -11 9
-21 20 -9 11 -13 20 -7 20 5 0 14 -9 20 -20z m114 -3 c-5 -14 -44 -18 -44 -5
0 4 9 8 21 8 13 0 18 4 13 12 -4 7 -3 8 4 4 6 -4 9 -12 6 -19z m2546 2 c0 -4
-7 -6 -15 -3 -8 4 -15 10 -15 15 0 4 7 6 15 3 8 -4 15 -10 15 -15z m-159 -10
c8 -15 8 -19 0 -15 -6 4 -11 0 -11 -9 0 -9 5 -13 10 -10 6 3 10 1 10 -4 0 -6
-4 -11 -10 -11 -5 0 -10 -5 -10 -10 0 -7 6 -7 18 -1 11 6 31 9 47 8 22 -2 28
-8 31 -30 1 -15 -2 -27 -7 -27 -6 0 -7 -6 -3 -12 5 -9 2 -8 -10 1 -9 8 -15 20
-12 26 8 22 -10 38 -35 29 -13 -4 -28 -7 -33 -6 -5 2 -6 -4 -3 -12 4 -10 1
-13 -9 -9 -7 3 -14 0 -14 -6 0 -6 5 -11 12 -11 6 0 9 -2 6 -5 -3 -3 -13 -3
-22 1 -14 5 -13 10 8 35 15 18 22 36 19 49 -6 22 -18 26 -28 10 -3 -5 -10 -10
-16 -10 -5 0 -1 8 9 18 13 14 20 16 31 8 12 -9 13 -7 8 7 -9 24 0 21 14 -4z
m-2467 -14 c-4 -8 -10 -15 -15 -15 -4 0 -6 7 -3 15 4 8 10 15 15 15 4 0 6 -7
3 -15z m102 7 c-9 -15 36 -44 70 -45 7 0 11 -11 9 -24 -3 -27 3 -29 20 -6 9
13 14 13 20 3 5 -9 4 -11 -3 -6 -32 20 -4 -21 58 -86 39 -40 70 -76 70 -81 0
-8 -90 82 -122 123 -11 14 -27 25 -36 25 -9 0 -17 8 -17 17 0 19 -8 29 -27 32
-37 6 -80 56 -47 56 5 0 8 -4 5 -8z m-172 -18 c3 -8 2 -12 -4 -9 -6 3 -10 10
-10 16 0 14 7 11 14 -7z m31 6 c3 -5 2 -10 -4 -10 -5 0 -13 5 -16 10 -3 6 -2
10 4 10 5 0 13 -4 16 -10z m2425 0 c0 -5 -5 -10 -11 -10 -5 0 -7 5 -4 10 3 6
8 10 11 10 2 0 4 -4 4 -10z m-2317 -7 c-7 -2 -19 -2 -25 0 -7 3 -2 5 12 5 14
0 19 -2 13 -5z m2367 -13 c0 -5 -5 -10 -11 -10 -5 0 -7 5 -4 10 3 6 8 10 11
10 2 0 4 -4 4 -10z m-2453 -6 c-3 -3 -12 -4 -19 -1 -8 3 -5 6 6 6 11 1 17 -2
13 -5z m103 -4 c0 -5 -2 -10 -4 -10 -3 0 -8 5 -11 10 -3 6 -1 10 4 10 6 0 11
-4 11 -10z m2217 -30 c2 -25 -16 -37 -28 -19 -6 9 -3 18 8 27 9 6 17 12 18 12
0 0 1 -9 2 -20z m105 1 c-12 -10 -19 -20 -16 -23 3 -3 -2 -8 -10 -11 -9 -4
-15 -1 -13 6 2 13 38 46 51 47 5 0 -1 -8 -12 -19z m-2252 1 c0 -4 -9 -8 -20
-9 -11 -1 -20 2 -20 5 0 4 9 8 20 9 11 1 20 -2 20 -5z m2094 -27 c-4 -8 -11
-15 -16 -15 -6 0 -5 6 2 15 7 8 14 15 16 15 2 0 1 -7 -2 -15z m76 -5 c0 -5 -5
-10 -11 -10 -5 0 -7 5 -4 10 3 6 8 10 11 10 2 0 4 -4 4 -10z m-2155 -10 c3 -5
1 -10 -4 -10 -6 0 -11 5 -11 10 0 6 2 10 4 10 3 0 8 -4 11 -10z m120 -8 c-3
-3 -11 0 -18 7 -9 10 -8 11 6 5 10 -3 15 -9 12 -12z m1915 3 c-7 -9 -15 -13
-19 -10 -3 3 1 10 9 15 21 14 24 12 10 -5z m68 -16 c-3 -8 -7 -3 -11 10 -4 17
-3 21 5 13 5 -5 8 -16 6 -23z m-2055 -8 c18 -30 24 -57 7 -31 -6 10 -10 11
-10 3 0 -7 -5 -13 -12 -13 -6 0 -8 3 -5 6 4 4 -3 15 -15 25 -11 11 -16 19 -11
19 6 0 16 -7 23 -15 7 -9 15 -13 18 -10 3 3 -3 14 -13 25 -10 11 -14 20 -9 20
5 0 17 -13 27 -29z m100 -29 c10 -12 23 -20 28 -17 5 4 9 1 9 -4 0 -20 -16
-11 -66 36 -32 30 -38 39 -19 27 17 -10 38 -29 48 -42z m-127 -41 c-4 -5 -2
-12 4 -16 5 -3 10 -1 10 4 0 6 8 3 19 -6 15 -15 16 -20 5 -32 -16 -17 -89 -24
-75 -7 15 19 9 45 -11 43 -10 -1 -18 -7 -18 -14 0 -7 -4 -13 -10 -13 -5 0 -7
7 -4 15 4 8 1 15 -6 15 -6 0 -8 5 -4 11 4 8 9 7 15 -2 12 -20 11 -2 -1 22 -6
10 -16 19 -23 19 -8 0 -7 -4 3 -10 8 -5 11 -13 6 -17 -5 -4 -11 -2 -13 5 -3 6
-10 9 -16 6 -7 -3 6 10 28 29 l40 35 28 -39 c16 -21 26 -43 23 -48z m1991 2
c2 -13 1 -14 -4 -3 -8 18 -35 40 -44 34 -4 -2 -10 3 -13 12 -5 13 0 12 26 -4
18 -12 34 -29 35 -39z m-82 37 c-3 -5 -1 -10 4 -10 6 0 11 -5 11 -11 0 -5 -4
-8 -9 -5 -5 4 -12 0 -15 -6 -2 -7 -3 -2 -1 12 4 31 4 30 11 30 3 0 2 -4 -1
-10z m45 -30 c0 -5 -4 -10 -10 -10 -5 0 -10 5 -10 10 0 6 5 10 10 10 6 0 10
-4 10 -10z m-116 -25 c-4 -8 -10 -12 -15 -9 -5 3 -9 -1 -9 -8 0 -9 -3 -9 -10
2 -5 8 -10 13 -11 10 -7 -35 -2 -57 18 -80 20 -24 21 -29 7 -34 -9 -3 -20 -4
-25 0 -5 3 -9 0 -9 -5 0 -6 5 -11 10 -11 6 0 10 -5 10 -11 0 -8 -5 -8 -15 1
-10 9 -15 9 -15 1 0 -6 -5 -11 -10 -11 -6 0 -3 11 6 24 9 15 21 22 30 19 8 -3
14 0 14 6 0 6 -4 11 -9 11 -5 0 -13 9 -16 20 -7 21 -27 28 -22 8 1 -6 -5 -13
-13 -13 -8 -1 -9 0 -2 2 7 3 10 9 6 14 -3 5 2 12 10 15 9 3 16 10 16 16 0 5
-4 6 -10 3 -5 -3 -10 -2 -10 3 0 12 31 27 61 31 5 0 7 6 3 13 -4 7 -3 8 4 4 6
-4 9 -13 6 -21z m-1638 2 c6 2 11 -3 11 -11 0 -13 -4 -13 -29 0 -15 8 -28 17
-28 20 0 2 8 1 18 -4 9 -5 22 -8 28 -5z m1729 3 c3 -5 1 -10 -4 -10 -6 0 -11
5 -11 10 0 6 2 10 4 10 3 0 8 -4 11 -10z m-1735 -36 c0 -2 -7 -4 -15 -4 -8 0
-15 4 -15 10 0 5 7 7 15 4 8 -4 15 -8 15 -10z m43 5 c-13 -13 -6 -42 8 -33 5
3 7 9 4 14 -3 4 5 6 17 2 l22 -5 -21 -8 c-12 -4 -26 -15 -31 -25 -7 -12 -14
-14 -27 -7 -12 7 -14 13 -6 17 6 4 11 2 11 -4 0 -6 4 -9 10 -5 5 3 7 12 4 20
-4 8 -10 12 -15 9 -16 -10 -9 9 9 22 21 16 30 18 15 3z m1517 -9 c0 -5 -5 -10
-11 -10 -5 0 -7 5 -4 10 3 6 8 10 11 10 2 0 4 -4 4 -10z m-49 -27 c-38 -52
-78 -93 -85 -86 -3 3 -6 1 -6 -5 0 -7 -5 -12 -11 -12 -5 0 -7 5 -4 10 3 6 -1
10 -9 10 -8 0 -18 4 -21 10 -4 7 2 7 19 0 21 -8 31 -5 56 16 31 27 43 57 13
33 -16 -13 -17 -12 -4 3 7 10 18 15 23 12 5 -3 16 3 24 15 8 12 17 21 20 21 3
0 -4 -12 -15 -27z m114 17 c3 -5 1 -10 -4 -10 -6 0 -11 5 -11 10 0 6 2 10 4
10 3 0 8 -4 11 -10z m-1625 -7 c0 -5 -5 -15 -10 -23 -7 -12 -9 -10 -7 8 1 19
17 33 17 15z m-153 -16 c0 -7 -9 -13 -19 -13 -19 0 -23 8 -11 19 11 12 30 8
30 -6z m283 -4 c0 -3 -6 -3 -14 0 -18 7 -56 -20 -56 -40 0 -14 4 -13 20 5 12
12 26 22 31 22 6 0 1 -9 -12 -19 l-24 -19 23 -24 c36 -39 25 -42 -14 -3 -39
39 -39 65 -1 82 21 10 47 7 47 -4z m1400 -5 c-11 -12 -20 -29 -21 -37 0 -10
-3 -11 -5 -4 -6 14 24 63 38 63 5 0 0 -10 -12 -22z m-1386 -21 c-5 -13 -44
-41 -44 -31 0 5 41 43 47 44 1 0 0 -6 -3 -13z m1293 -9 c-3 -8 -6 -5 -6 6 -1
11 2 17 5 13 3 -3 4 -12 1 -19z m132 -7 c-24 -32 -20 -62 8 -59 33 2 53 -2 53
-12 0 -7 -7 -7 -21 1 -16 8 -23 8 -29 0 -4 -8 -12 -5 -24 8 -19 21 -15 50 10
76 25 24 26 17 3 -14z m141 10 c6 -10 1 -21 -17 -35 -32 -24 -73 -30 -73 -10
0 15 1 15 45 18 20 1 31 7 33 19 2 9 -2 17 -8 17 -6 0 -9 -4 -6 -8 2 -4 -4 -9
-15 -9 -11 -1 -17 2 -14 7 3 4 -1 10 -7 13 -7 2 2 4 20 3 18 -1 37 -8 42 -15z
m-1700 -1 c0 -5 -2 -10 -4 -10 -3 0 -8 5 -11 10 -3 6 -1 10 4 10 6 0 11 -4 11
-10z m1407 -16 c-9 -9 -28 6 -21 18 4 6 10 6 17 -1 6 -6 8 -13 4 -17z m127 11
c-4 -8 -10 -15 -15 -15 -4 0 -6 7 -3 15 4 8 10 15 15 15 4 0 6 -7 3 -15z
m-1509 -5 c3 -5 1 -10 -4 -10 -6 0 -11 5 -11 10 0 6 2 10 4 10 3 0 8 -4 11
-10z m115 -15 c-25 -27 -17 -33 14 -10 20 15 56 5 56 -16 0 -6 -7 -3 -16 5
-22 22 -52 5 -49 -28 2 -18 -1 -23 -11 -19 -8 3 -14 9 -14 15 0 5 5 6 10 3 17
-11 11 7 -7 20 -16 12 -16 15 7 34 34 28 38 26 10 -4z m1340 5 c0 -5 -5 -10
-11 -10 -5 0 -7 5 -4 10 3 6 8 10 11 10 2 0 4 -4 4 -10z m-151 -39 c-13 -11
-19 -20 -13 -21 5 0 15 5 21 11 7 7 12 6 16 -5 4 -9 1 -13 -7 -10 -7 3 -30 -9
-51 -26 -21 -16 -34 -30 -30 -30 4 0 -12 -18 -35 -40 -23 -22 -46 -40 -50 -40
-16 0 -62 49 -57 61 4 9 6 7 6 -5 1 -11 4 -17 7 -13 4 3 14 -3 24 -15 l17 -22
34 32 c19 18 37 32 40 32 3 0 5 16 4 35 -2 19 1 33 5 30 5 -3 10 -1 12 4 1 5
10 11 18 13 8 2 23 11 34 20 11 10 22 16 24 13 3 -2 -6 -13 -19 -24z m167 5
c-15 -13 -26 -28 -26 -35 0 -6 -5 -11 -10 -11 -7 0 -8 5 -3 13 29 46 39 57 51
57 7 0 2 -10 -12 -24z m-42 -3 c-10 -10 -19 -24 -19 -32 0 -20 -24 -26 -31 -7
-3 9 -10 16 -16 16 -5 0 -6 -4 -3 -10 3 -5 1 -10 -5 -10 -22 0 -3 25 19 26 13
1 30 9 39 18 9 9 21 16 26 16 5 0 0 -8 -10 -17z m-1264 3 c0 -2 -7 -6 -15 -10
-8 -3 -15 -1 -15 4 0 6 7 10 15 10 8 0 15 -2 15 -4z m1190 0 c0 -3 -4 -8 -10
-11 -5 -3 -10 -1 -10 4 0 6 5 11 10 11 6 0 10 -2 10 -4z m150 -28 c0 -5 -5 -8
-11 -8 -5 0 -7 5 -4 10 3 6 1 10 -5 10 -6 0 -8 5 -4 11 6 11 23 -6 24 -23z
m-1292 -3 c-11 -25 -28 -34 -28 -15 0 6 5 10 10 10 6 0 10 7 10 15 0 8 4 15
10 15 6 0 5 -10 -2 -25z m-42 -1 c-7 -19 12 -47 25 -38 5 3 9 0 9 -5 0 -17
-15 -13 -46 14 -15 13 -25 27 -21 31 4 4 7 2 7 -5 0 -7 5 -9 10 -6 6 4 8 11 5
16 -4 5 -1 9 5 9 7 0 9 -7 6 -16z m1298 -9 c-5 -11 -2 -13 10 -9 22 8 49 -3
40 -17 -4 -8 -9 -7 -14 2 -7 10 -12 10 -23 1 -12 -10 -16 -9 -21 4 -3 9 -4 20
0 25 9 14 14 10 8 -6z m-1224 -1 c0 -3 -7 -12 -15 -20 -16 -17 -18 -14 -9 10
6 15 24 23 24 10z m29 -20 c-6 -8 -15 -12 -18 -8 -3 4 0 9 7 11 6 3 9 10 6 15
-4 7 -2 8 5 4 9 -6 9 -11 0 -22z m938 -1 c-3 -34 -23 -41 -37 -11 -11 22 -10
22 4 4 9 -11 19 -17 22 -13 4 4 1 14 -7 24 -9 11 -10 14 -1 9 6 -4 12 -2 12 3
0 6 2 11 4 11 3 0 4 -12 3 -27z m-1187 1 c0 -8 -19 -13 -24 -6 -3 5 1 9 9 9 8
0 15 -2 15 -3z m1098 -39 c-3 -3 -9 2 -12 12 -6 14 -5 15 5 6 7 -7 10 -15 7
-18z m39 19 c-3 -3 -12 -4 -19 -1 -8 3 -5 6 6 6 11 1 17 -2 13 -5z m-799 -39
c-3 -3 -9 2 -12 12 -6 14 -5 15 5 6 7 -7 10 -15 7 -18z m793 5 c6 0 7 5 4 10
-3 6 -2 10 4 10 19 0 19 -16 0 -28 -10 -7 -19 -10 -19 -8 0 2 -2 10 -3 18 -2
7 -2 10 0 6 3 -5 9 -8 14 -8z m-746 -30 c10 -11 22 -17 26 -14 8 5 10 -1 9
-21 -1 -8 27 -35 35 -35 3 0 5 7 3 16 -2 10 4 19 12 21 13 4 13 3 0 -6 -12 -8
-12 -11 -1 -11 11 0 11 -3 1 -15 -10 -12 -8 -16 11 -24 17 -7 19 -10 7 -10
-18 -1 -14 -31 4 -31 5 0 6 5 3 10 -3 6 -1 10 4 10 6 0 10 -10 8 -22 -1 -16 3
-22 13 -21 20 4 44 -33 27 -40 -12 -5 -52 17 -45 25 2 2 -7 16 -19 32 -21 26
-28 27 -24 4 0 -5 -4 -8 -10 -8 -6 0 -9 7 -5 15 3 9 0 15 -10 15 -10 0 -14 -7
-12 -20 2 -10 -1 -19 -7 -20 -5 0 -10 4 -10 9 0 5 -10 21 -22 35 -13 14 -19
26 -14 26 5 0 14 -7 21 -15 7 -8 17 -15 23 -15 6 0 0 11 -13 25 -13 14 -18 25
-12 25 7 0 12 -5 12 -11 0 -5 5 -7 10 -4 6 4 9 1 8 -6 -2 -6 2 -13 9 -16 17
-6 9 28 -11 42 -9 7 -12 15 -6 17 5 1 1 9 -11 16 -19 12 -20 11 -14 -7 4 -13
2 -21 -5 -21 -6 0 -9 4 -6 9 3 5 -1 14 -10 21 -11 10 -18 10 -26 2 -15 -15
-28 -15 -28 -1 0 5 4 8 9 4 6 -3 15 4 21 15 13 25 22 25 45 0z m635 -37 c0 -7
-5 -13 -12 -13 -6 0 -8 3 -5 7 4 3 0 18 -10 32 l-16 26 21 -19 c12 -11 22 -25
22 -33z m-516 -28 c-4 -8 -11 -15 -16 -15 -6 0 -5 6 2 15 7 8 14 15 16 15 2 0
1 -7 -2 -15z m368 -3 c-7 -2 -12 -8 -12 -14 0 -5 9 -6 20 -3 12 4 20 2 20 -5
0 -6 -4 -8 -10 -5 -5 3 -10 1 -10 -4 0 -6 5 -11 12 -11 6 0 8 -3 5 -6 -8 -8
-35 13 -49 39 -7 14 -7 17 1 13 6 -4 11 -2 11 4 0 6 5 8 12 4 9 -6 9 -9 0 -12z
m48 -2 c0 -5 -2 -10 -4 -10 -3 0 -8 5 -11 10 -3 6 -1 10 4 10 6 0 11 -4 11
-10z m-310 -27 c0 9 58 -52 63 -66 2 -6 9 -7 16 -3 9 6 3 17 -22 40 -27 25
-31 32 -16 32 10 0 16 -2 14 -4 -2 -2 7 -16 21 -31 l25 -26 27 30 c15 17 23
25 18 18 -5 -7 -5 -13 0 -13 5 0 -2 -7 -14 -16 -12 -8 -20 -20 -16 -25 3 -6
11 -3 18 7 7 9 19 14 27 11 10 -4 9 -6 -4 -6 -10 -1 -16 -5 -13 -10 3 -5 -1
-11 -9 -15 -8 -3 -17 -1 -20 4 -4 6 -11 10 -17 10 -7 0 -6 -6 2 -15 9 -10 9
-15 1 -15 -6 0 -11 5 -11 12 0 6 -7 4 -18 -5 -20 -19 -34 -13 -25 9 3 8 -12
31 -36 54 -23 22 -41 43 -41 47 0 5 7 -1 15 -11 8 -11 15 -17 15 -13z m230 5
c0 -5 -6 -8 -12 -7 -20 3 -49 -12 -42 -22 3 -5 0 -9 -5 -9 -18 0 -13 18 9 33
22 15 50 18 50 5z m-474 -24 c-4 -11 -2 -15 8 -11 16 6 28 -2 20 -14 -9 -15
-44 10 -38 26 4 8 8 15 11 15 3 0 2 -7 -1 -16z m354 -8 c-7 -7 -14 -6 -21 1
-9 9 -7 12 9 10 14 -1 18 -5 12 -11z m107 8 c-4 -4 6 -18 21 -32 28 -25 10
-20 -20 5 -14 13 -18 12 -28 -6 -6 -12 -15 -21 -21 -21 -5 0 -1 10 11 22 11
12 20 25 20 30 0 4 5 8 12 8 6 0 8 -3 5 -6z m36 -7 c39 -42 50 -57 36 -52 -16
7 -64 65 -54 65 4 0 12 -6 18 -13z m47 -17 c0 -5 -2 -10 -4 -10 -3 0 -8 5 -11
10 -3 6 -1 10 4 10 6 0 11 -4 11 -10z m-79 -27 c13 -16 12 -17 -3 -4 -17 13
-22 21 -14 21 2 0 10 -8 17 -17z"/>
<path d="M124 2582 c-9 -5 -8 -10 1 -19 11 -10 13 -9 12 7 -1 11 -1 20 -2 20
0 0 -5 -4 -11 -8z"/>
<path d="M251 2238 c10 -22 15 -25 26 -17 15 13 18 39 3 39 -5 0 -10 -8 -10
-17 0 -15 -2 -14 -15 3 -14 18 -14 17 -4 -8z"/>
<path d="M727 1900 c-20 -21 -24 -30 -13 -30 8 0 21 9 29 20 8 11 17 17 20 13
4 -3 7 1 7 10 0 24 -11 21 -43 -13z"/>
<path d="M4250 1764 c-21 -21 -23 -26 -10 -34 8 -5 18 -10 21 -10 12 0 52 40
46 47 -4 3 -18 -4 -32 -17 -14 -13 -25 -19 -25 -14 0 5 9 15 20 22 19 12 28
33 13 31 -5 0 -19 -11 -33 -25z"/>
<path d="M1105 1600 c-3 -5 -1 -10 4 -10 6 0 11 5 11 10 0 6 -2 10 -4 10 -3 0
-8 -4 -11 -10z"/>
<path d="M3750 1389 c0 -5 5 -7 10 -4 6 3 10 8 10 11 0 2 -4 4 -10 4 -5 0 -10
-5 -10 -11z"/>
<path d="M3750 1359 c0 -5 5 -7 10 -4 6 3 10 8 10 11 0 2 -4 4 -10 4 -5 0 -10
-5 -10 -11z"/>
<path d="M3505 1370 c3 -5 8 -10 11 -10 2 0 4 5 4 10 0 6 -5 10 -11 10 -5 0
-7 -4 -4 -10z"/>
<path d="M1350 1301 c0 -12 29 -35 36 -28 4 3 -1 13 -9 22 -17 17 -27 19 -27
6z"/>
<path d="M1348 1261 c9 -16 19 -25 23 -20 9 15 27 -12 24 -37 -1 -11 4 -21 11
-21 7 0 10 5 7 11 -4 6 -7 24 -7 41 -1 22 -5 29 -17 27 -9 -1 -22 5 -29 13
-22 26 -30 16 -12 -14z"/>
<path d="M1430 1206 c0 -9 5 -16 10 -16 6 0 10 4 10 9 0 6 -4 13 -10 16 -5 3
-10 -1 -10 -9z"/>
<path d="M2896 1029 c-26 -26 -15 -34 14 -11 13 10 19 21 14 24 -5 3 -18 -3
-28 -13z"/>
<path d="M3030 1030 c0 -5 5 -10 10 -10 6 0 10 5 10 10 0 6 -4 10 -10 10 -5 0
-10 -4 -10 -10z"/>
<path d="M2025 920 c3 -5 11 -10 16 -10 6 0 7 5 4 10 -3 6 -11 10 -16 10 -6 0
-7 -4 -4 -10z"/>
<path d="M2115 830 c3 -5 11 -10 16 -10 6 0 7 5 4 10 -3 6 -11 10 -16 10 -6 0
-7 -4 -4 -10z"/>
<path d="M2195 740 c3 -5 8 -10 11 -10 2 0 4 5 4 10 0 6 -5 10 -11 10 -5 0 -7
-4 -4 -10z"/>
<path d="M2750 3996 c0 -2 7 -7 16 -10 8 -3 12 -2 9 4 -6 10 -25 14 -25 6z"/>
<path d="M84 2552 c4 -7 3 -12 -2 -12 -5 0 -9 -7 -9 -15 0 -20 4 -19 17 4 7
14 7 22 -2 27 -7 4 -8 3 -4 -4z"/>
<path d="M154 2522 c3 -6 2 -13 -4 -17 -6 -4 -4 -14 5 -29 8 -12 13 -25 10
-28 -3 -2 4 -13 16 -24 21 -19 21 -19 18 1 -2 11 -14 31 -26 44 -16 18 -19 29
-12 37 7 8 6 15 -2 20 -7 4 -9 3 -5 -4z"/>
<path d="M150 2361 c0 -6 5 -13 10 -16 6 -3 10 1 10 9 0 9 -4 16 -10 16 -5 0
-10 -4 -10 -9z"/>
<path d="M230 2361 c0 -4 -7 -16 -16 -27 -8 -10 -13 -14 -10 -7 10 19 -9 23
-21 4 -9 -14 -8 -18 5 -18 10 0 25 7 35 15 16 15 17 14 11 -1 -3 -10 -1 -17 6
-17 6 0 9 4 5 9 -3 5 2 17 11 25 8 9 14 16 12 17 -25 6 -38 6 -38 0z"/>
<path d="M4988 2233 c12 -21 -6 -66 -24 -59 -8 3 -16 1 -19 -3 -2 -5 4 -11 15
-14 11 -3 20 0 20 6 0 8 4 7 9 -2 5 -7 14 -12 21 -9 9 3 8 8 -4 20 -9 9 -12
19 -7 23 6 3 14 -3 20 -12 6 -10 11 -15 11 -11 0 9 -41 78 -46 78 -3 0 -1 -8
4 -17z"/>
<path d="M5010 2240 c0 -18 19 -40 35 -40 7 0 6 3 -1 8 -6 4 -16 16 -22 27 -8
15 -11 16 -12 5z"/>
<path d="M270 2120 c0 -5 5 -10 11 -10 5 0 7 5 4 10 -3 6 -8 10 -11 10 -2 0
-4 -4 -4 -10z"/>
<path d="M290 2081 c0 -6 4 -13 10 -16 6 -3 7 1 4 9 -7 18 -14 21 -14 7z"/>
<path d="M323 2075 c0 -8 4 -12 9 -9 5 3 6 10 3 15 -9 13 -12 11 -12 -6z"/>
<path d="M4825 2080 c3 -5 -9 -16 -27 -23 -34 -14 -79 -57 -61 -57 5 0 19 8
31 18 11 9 35 25 52 34 28 16 34 38 9 38 -6 0 -7 -4 -4 -10z"/>
<path d="M4850 2060 c-19 -16 -38 -29 -42 -30 -17 -1 -98 -62 -93 -71 4 -5 18
2 33 16 15 14 30 25 34 25 5 0 11 0 15 0 5 0 9 -12 10 -27 2 -21 0 -24 -7 -13
-7 10 -10 11 -10 3 0 -7 -5 -12 -12 -10 -6 1 -17 -9 -25 -23 -9 -17 -13 -20
-13 -8 0 9 14 28 32 42 18 14 29 28 26 32 -12 11 -81 -64 -74 -81 3 -8 1 -15
-4 -15 -6 0 -10 -5 -10 -10 0 -6 11 -3 24 6 14 8 28 15 33 14 4 -1 9 4 11 12
2 9 0 8 -7 -2 -7 -9 -11 -10 -11 -3 0 21 18 24 30 6 10 -16 10 -16 5 3 -4 14
-1 21 10 21 9 0 14 -6 11 -14 -4 -10 -1 -10 14 -1 10 7 16 16 14 20 -3 5 -9 6
-13 3 -5 -2 -7 6 -7 18 1 12 -2 28 -7 35 -6 7 -6 12 0 12 6 0 20 9 33 20 12
11 26 17 31 15 4 -3 7 4 6 15 -1 11 -2 20 -2 20 0 0 -16 -13 -35 -30z"/>
<path d="M415 2040 c-3 -5 1 -10 10 -10 9 0 13 5 10 10 -3 6 -8 10 -10 10 -2
0 -7 -4 -10 -10z"/>
<path d="M4856 2028 c-7 -10 -15 -15 -18 -13 -3 3 -5 -6 -5 -20 0 -15 7 -30
18 -36 15 -7 17 -6 13 6 -3 8 -10 12 -15 9 -5 -3 -1 8 8 24 17 29 27 33 50 19
7 -5 9 -1 6 12 -6 24 -40 23 -57 -1z"/>
<path d="M4876 2004 c-9 -8 -14 -20 -11 -24 9 -15 35 1 35 21 0 23 -4 24 -24
3z"/>
<path d="M4710 2002 c0 -5 -13 -15 -29 -21 -15 -7 -33 -24 -40 -37 -14 -31
-14 -34 0 -34 5 0 8 4 4 9 -3 6 6 18 20 28 62 44 68 50 57 57 -7 4 -12 3 -12
-2z"/>
<path d="M4681 1951 c-12 -8 -12 -12 -3 -24 7 -8 12 -19 11 -23 -5 -27 4 -25
16 5 20 44 9 63 -24 42z m24 -11 c3 -5 1 -10 -4 -10 -6 0 -11 5 -11 10 0 6 2
10 4 10 3 0 8 -4 11 -10z"/>
<path d="M606 1883 c-20 -17 -31 -21 -36 -13 -5 8 -10 9 -14 2 -3 -6 3 -13 14
-17 11 -4 17 -11 14 -17 -4 -7 -2 -8 5 -4 6 4 9 12 6 17 -4 5 -2 9 4 9 5 0 16
6 24 14 12 13 16 12 26 -10 10 -23 10 -24 -10 -14 -23 13 -35 8 -24 -9 5 -10
51 -8 61 2 2 2 -6 17 -19 34 l-23 31 -28 -25z"/>
<path d="M4697 1863 c-4 -3 -7 -11 -7 -17 0 -6 5 -5 12 2 6 6 9 14 7 17 -3 3
-9 2 -12 -2z"/>
<path d="M4583 1841 c-12 -11 -24 -17 -27 -14 -3 4 -6 -1 -6 -9 0 -21 26 -42
35 -28 3 6 11 7 17 4 7 -4 8 -2 4 5 -4 6 -12 9 -17 6 -14 -9 -11 8 7 33 19 27
14 28 -13 3z"/>
<path d="M4470 1775 c-6 -8 -9 -19 -5 -25 3 -5 1 -10 -4 -10 -6 0 -11 7 -11
16 0 8 -5 12 -10 9 -8 -5 -8 -11 0 -20 8 -9 7 -14 -4 -18 -9 -4 -18 -2 -21 3
-4 6 -11 10 -17 10 -7 0 -7 -4 1 -13 8 -10 7 -17 -1 -25 -16 -16 -29 -15 -25
1 1 6 -5 12 -13 12 -8 0 -20 4 -27 8 -6 4 -15 1 -20 -6 -4 -8 -18 -20 -31 -26
-32 -17 -62 -44 -62 -55 0 -6 5 -5 12 2 9 9 15 7 25 -6 11 -13 16 -14 20 -4 4
10 8 10 20 1 8 -7 13 -8 12 -3 -1 5 0 11 1 14 7 18 7 39 0 35 -5 -3 -12 0 -16
7 -4 7 -4 10 1 6 4 -4 20 -1 36 7 34 18 36 18 36 1 0 -8 -8 -11 -19 -8 -20 5
-26 -22 -6 -34 7 -5 8 -3 3 6 -6 10 -4 12 8 7 10 -3 17 -2 17 3 0 6 9 10 20
10 11 0 19 6 18 13 -2 6 4 12 13 12 9 0 24 8 33 18 10 9 21 17 25 17 5 0 9 11
9 25 0 29 -2 30 -18 10z m-167 -120 c4 3 5 2 3 -1 -2 -3 -6 -4 -9 -2 -2 2 -11
-3 -20 -10 -13 -11 -15 -10 -12 5 2 10 4 23 5 28 0 6 7 2 14 -7 7 -10 16 -16
19 -13z"/>
<path d="M880 1635 c7 -8 17 -15 22 -15 6 0 5 7 -2 15 -7 8 -17 15 -22 15 -6
0 -5 -7 2 -15z"/>
<path d="M4083 1578 c-17 -21 -43 -75 -38 -80 2 -2 -6 -4 -18 -5 -21 -2 -21
-1 -3 12 11 8 17 17 14 20 -3 3 -20 -7 -37 -22 -17 -15 -44 -28 -58 -28 -15
-1 -28 -6 -31 -13 -2 -7 2 -10 11 -6 8 3 24 -5 37 -18 18 -19 20 -20 14 -4 -6
15 -4 17 6 11 9 -6 11 -4 5 5 -5 9 -2 10 13 6 14 -5 27 -1 41 13 10 10 23 16
27 13 4 -4 4 1 1 10 -3 9 1 22 9 29 8 7 13 18 10 24 -2 7 1 18 7 24 6 6 8 13
5 16 -3 3 -10 0 -15 -7z m-74 -91 c-2 -1 -14 -10 -26 -20 -16 -14 -23 -15 -29
-6 -4 7 -3 10 3 6 6 -4 16 0 23 8 7 8 17 15 23 15 6 0 8 -1 6 -3z m31 -6 c0
-5 -7 -12 -16 -15 -14 -5 -15 -4 -4 9 14 17 20 19 20 6z"/>
<path d="M984 1510 c0 -13 4 -16 10 -10 7 7 7 13 0 20 -6 6 -10 3 -10 -10z"/>
<path d="M1039 1443 c15 -13 29 -19 34 -14 13 13 -2 33 -20 27 -9 -4 -21 -3
-27 1 -7 5 -1 -2 13 -14z m31 -3 c0 -5 -2 -10 -4 -10 -3 0 -8 5 -11 10 -3 6
-1 10 4 10 6 0 11 -4 11 -10z"/>
<path d="M3860 1440 c0 -5 7 -10 16 -10 8 0 12 5 9 10 -3 6 -10 10 -16 10 -5
0 -9 -4 -9 -10z"/>
<path d="M3833 1414 c6 -10 -21 -43 -30 -36 -1 1 -3 0 -3 -3 0 -3 0 -10 0 -16
0 -7 9 0 21 15 11 14 24 24 29 21 5 -3 12 0 16 7 4 7 4 10 -1 6 -4 -4 -15 -2
-23 5 -10 7 -13 8 -9 1z"/>
<path d="M3680 1320 c-8 -5 -10 -10 -5 -10 6 0 17 5 25 10 8 5 11 10 5 10 -5
0 -17 -5 -25 -10z"/>
<path d="M3606 1273 c-6 -14 -5 -15 5 -6 7 7 10 15 7 18 -3 3 -9 -2 -12 -12z"/>
<path d="M3566 1271 c-3 -4 -17 -7 -31 -6 -28 4 -32 -7 -10 -25 11 -9 18 -10
28 -1 8 6 16 9 18 6 3 -2 5 5 5 15 0 22 -2 24 -10 11z"/>
<path d="M3461 1198 c-6 -10 -11 -21 -11 -25 0 -5 5 0 11 10 6 9 14 15 18 12
5 -2 14 2 21 10 9 11 8 14 -8 12 -11 0 -25 -9 -31 -19z"/>
<path d="M3310 1204 c0 -12 21 -34 33 -34 4 0 6 4 3 8 -3 5 1 9 9 9 12 0 12
-4 -1 -21 -8 -11 -14 -23 -14 -27 0 -7 30 -8 31 0 0 3 2 14 4 25 6 31 -5 47
-24 36 -12 -6 -22 -5 -29 2 -7 7 -12 8 -12 2z"/>
<path d="M1523 1125 c0 -8 4 -15 9 -15 4 0 8 4 8 9 0 6 -4 12 -8 15 -5 3 -9
-1 -9 -9z"/>
<path d="M1541 1072 c-8 -16 -6 -23 12 -38 22 -19 22 -19 5 2 -14 15 -15 23
-6 32 6 6 9 14 6 18 -4 3 -11 -3 -17 -14z"/>
<path d="M1570 1078 c0 -4 7 -8 15 -8 8 0 18 0 22 -1 4 0 9 4 11 10 2 6 -7 10
-22 9 -14 -1 -26 -6 -26 -10z"/>
<path d="M1699 1030 c0 -3 -2 -14 -4 -24 -2 -10 -8 -22 -13 -25 -6 -4 -4 -11
4 -19 8 -8 14 -9 15 -2 1 5 2 15 3 20 1 13 21 13 21 0 0 -13 41 -41 49 -33 3
3 6 1 6 -5 0 -6 -8 -16 -17 -22 -12 -7 -13 -10 -3 -7 8 2 23 -2 33 -11 9 -8
17 -10 17 -5 0 6 -7 14 -16 17 -16 6 -11 26 7 26 6 0 8 -3 6 -7 -3 -5 9 -9 26
-10 30 -2 31 -1 12 12 -11 8 -33 26 -48 40 -15 14 -32 23 -37 20 -15 -9 -12
-25 3 -19 8 3 20 -3 28 -13 13 -16 12 -17 -3 -5 -9 8 -22 11 -28 7 -6 -4 -17
8 -25 27 -8 18 -14 29 -15 23 0 -5 -5 -3 -10 5 -5 8 -10 13 -11 10z"/>
<path d="M2941 996 c-6 -8 -11 -18 -10 -22 3 -20 -2 -34 -12 -34 -8 0 -8 4 0
14 8 10 9 16 1 21 -5 3 -10 2 -10 -4 0 -14 -87 -101 -94 -94 -3 4 -6 1 -6 -6
0 -7 -22 4 -49 23 -27 20 -52 33 -55 28 -3 -5 12 -18 33 -30 21 -12 44 -29 51
-37 10 -12 16 -13 27 -4 7 7 16 9 20 5 3 -3 1 -6 -6 -6 -7 0 -10 -4 -6 -10 3
-5 12 -7 20 -4 12 5 12 10 3 27 -11 21 -10 21 7 7 17 -14 18 -13 12 2 -7 21
30 61 50 54 7 -3 16 2 21 11 6 11 11 12 16 4 4 -6 2 -11 -3 -11 -6 0 -10 -6
-8 -12 1 -7 -5 -12 -13 -10 -11 3 -12 0 -4 -8 13 -13 46 -2 37 13 -4 6 0 8 10
4 8 -3 21 1 28 9 7 8 19 12 28 9 9 -3 0 10 -21 29 -20 19 -34 37 -30 40 3 3
-2 6 -10 6 -9 0 -21 -6 -27 -14z m69 -54 c0 -3 -5 -1 -11 5 -6 6 -18 9 -27 6
-10 -4 -13 -2 -8 5 4 7 2 12 -3 12 -6 0 -11 5 -11 11 0 6 14 1 30 -11 17 -12
30 -24 30 -28z m-20 -12 c0 -5 -2 -10 -4 -10 -3 0 -8 5 -11 10 -3 6 -1 10 4
10 6 0 11 -4 11 -10z"/>
<path d="M3072 993 c1 -4 -3 -18 -10 -30 -7 -13 -9 -23 -4 -23 14 0 33 48 21
55 -5 4 -8 3 -7 -2z"/>
<path d="M1712 953 c2 -9 11 -17 21 -19 18 -2 18 -2 1 17 -21 23 -26 24 -22 2z"/>
<path d="M2888 900 c-17 -20 -14 -27 11 -26 8 1 15 11 16 24 2 27 -5 28 -27 2z"/>
<path d="M2613 887 c3 -18 67 -81 74 -73 4 4 -5 18 -20 31 -14 14 -24 31 -21
38 2 7 -4 13 -16 14 -11 1 -19 -4 -17 -10z"/>
<path d="M2755 848 c4 -16 4 -19 -3 -9 -9 13 -32 8 -32 -7 0 -12 50 -10 50 2
0 6 7 2 15 -8 11 -15 15 -16 15 -5 0 13 -33 49 -46 49 -3 0 -2 -10 1 -22z"/>
<path d="M1994 800 c0 -16 3 -30 6 -30 4 0 7 14 7 30 0 17 -3 30 -7 30 -3 0
-6 -13 -6 -30z"/>
<path d="M2665 771 c-3 -5 -1 -12 5 -16 5 -3 10 1 10 9 0 18 -6 21 -15 7z"/>
</g>
</svg>
